<svg width="32" height="32" viewBox="0 0 32 32" fill="none" xmlns="http://www.w3.org/2000/svg">
<rect width="32" height="32" rx="16" fill="black"/>
<path d="M16 4C22.6 4 28 9.4 28 16C28 21.9333 23.6666 26.8662 18 27.8662L17.9316 27.8115C17.9543 27.8071 17.9773 27.8043 18 27.7998V19.333H20.667L21.2002 16H18V13.667C18 12.7337 18.3333 12.0001 19.7998 12H21.333V8.93359C20.4665 8.80029 19.5335 8.66703 18.667 8.66699C15.9338 8.66699 14.0001 10.3332 14 13.333V16H11V19.333H14V27.7998C14.0224 27.8043 14.045 27.8072 14.0674 27.8115L14 27.8662C8.33337 26.8662 4 21.9333 4 16C4 9.4 9.4 4 16 4Z" fill="white"/>
</svg>
