<svg width="32" height="32" viewBox="0 0 32 32" fill="none" xmlns="http://www.w3.org/2000/svg">
<rect width="32" height="32" rx="16" fill="black"/>
<path d="M13.3207 23.0106C15.1007 23.0106 16.5437 21.7363 16.5437 19.7876V5.33203H20.409C20.1921 7.96834 22.8129 10.5149 25.7031 10.4567V14.0913C23.2314 14.0913 21.1295 13.0462 20.3979 12.4661V19.7876C20.3979 23.0106 17.8625 26.6654 13.3207 26.6654C8.77896 26.6654 6.29883 23.0106 6.29883 19.7876C6.29883 15.2387 11.1127 12.6005 14.3011 13.2453V16.9474C14.1407 16.8907 13.7271 16.8068 13.3748 16.8068C11.58 16.7406 10.0978 18.1963 10.0978 19.7876C10.0978 21.5676 11.5407 23.0106 13.3207 23.0106Z" fill="white"/>
</svg>
